# xmcd
#
# Track frame offsets:
#	150
#	13892
#	24020
#	34627
#	49197
#	63367
#	76577
#	90580
#	102825
#	116007
#	127562
#	140020
#	153307
#	163420
#	175680
#	183510
#	194285
#	207302
#	219622
#	232080
#	244490
#	251890
#	263777
#	276215
#	288360
#	300455
#	311895
#
# Disc length: 4300 seconds
#
# Revision: 0
# Processed by: cddbd v1.5PL3 Copyright (c) Steve Scherf et al.
# Submitted via: dBpowerAMP V4.0
#
DISCID=7f10ca1b
DTITLE=Billy "The Kid" Emerson - Move, baby move
DYEAR=1900
DGENRE=Blues
TTITLE0=No teasing around
TTITLE1=If lovin's believin'
TTITLE2=Hey little girl
TTITLE3=I'm not going home
TTITLE4=The woodchuck
TTITLE5=When my baby quit me
TTITLE6=When it rains it pours
TTITLE7=Move baby move
TTITLE8=No greater love
TTITLE9=Little fine healthy thing
TTITLE10=Something for nothing
TTITLE11=Cherry pie
TTITLE12=Satisfied
TTITLE13=When my baby quit me (2)
TTITLE14=Red hot (alt)
TTITLE15=Shim sham shimmy
TTITLE16=No greater love (alt)
TTITLE17=Every woman i know (crazy 'bout automobiles)
TTITLE18=Tomorrow never comes
TTITLE19=Don't start me to lying
TTITLE20=If you wan't stay home
TTITLE21=Don't be careless
TTITLE22=Do the chicken
TTITLE23=Somebody show me
TTITLE24=The pleasure is all mine
TTITLE25=Do yourself a favor
TTITLE26=You never miss the water
EXTD=
EXTT0=
EXTT1=
EXTT2=
EXTT3=
EXTT4=
EXTT5=
EXTT6=
EXTT7=
EXTT8=
EXTT9=
EXTT10=
EXTT11=
EXTT12=
EXTT13=
EXTT14=
EXTT15=
EXTT16=
EXTT17=
EXTT18=
EXTT19=
EXTT20=
EXTT21=
EXTT22=
EXTT23=
EXTT24=
EXTT25=
EXTT26=
PLAYORDER=
